# xmcd CD database file
#
# Track frame offsets:
#	150
#	85481
#	169265
#	276984
#
# Disc length: 4288 seconds
#
# Revision: 0
# Processed by: cddbd v1.5.1PL0 Copyright (c) Steve Scherf et al.
# Submitted via: CDex 1.51
#
DISCID=3410be04
DTITLE=Jim Kirkwood - Talismans and Charms
DYEAR=2005
DGENRE=New Age
TTITLE0=Where The Plague Dogs Run
TTITLE1=A Haze Over Cairo
TTITLE2=Bloodstream
TTITLE3=The Nature Of The Apocalypse
EXTD=YEAR: 2005
EXTT0=
EXTT1=
EXTT2=
EXTT3=
PLAYORDER=
